/*  PUT YOUR MELODY HERE IS FORM OF "NOTES_XX".
 * ( eg. NOTE_C6,NOTE_E6,NOTE_G6,NOTE_C7).
 *  NOTE_REST IS FOR EMPTY NOTE(RESTS).
 *  A REST COULD BE ADDED INBEWEEN NOTES TO ACHIEVE BETTER CHIPTUNE EFFECT.
 *  THIS SEQUENCE IS FOR BUZZER 2.
 */

int melody7[]= { 
NOTE_REST,
NOTE_B6,NOTE_REST,
NOTE_AS6,NOTE_REST,
NOTE_B6,NOTE_REST,
NOTE_GS6,NOTE_REST,
NOTE_B6,NOTE_REST,
NOTE_AS6,NOTE_REST,
NOTE_B6,NOTE_REST,
NOTE_GS6,NOTE_REST,
NOTE_B6,NOTE_REST,
NOTE_AS6,NOTE_REST,
NOTE_B6,NOTE_REST,
NOTE_FS6,NOTE_REST,
NOTE_B6,NOTE_REST,
NOTE_AS6,NOTE_REST,
NOTE_B6,NOTE_REST,
NOTE_FS6,NOTE_REST,
NOTE_AS6,NOTE_REST,
NOTE_GS6,NOTE_REST,
NOTE_AS6,NOTE_REST,
NOTE_FS6,NOTE_REST,
NOTE_AS6,NOTE_REST,
NOTE_GS6,NOTE_REST,
NOTE_AS6,NOTE_REST,
NOTE_FS6,NOTE_REST,
NOTE_AS6,NOTE_REST,
NOTE_GS6,NOTE_REST,
NOTE_AS6,NOTE_REST,
NOTE_FS6,NOTE_REST,
NOTE_AS6,NOTE_REST,
NOTE_GS6,NOTE_REST,
NOTE_AS6,NOTE_REST,
NOTE_FS6,NOTE_REST,
NOTE_B6,NOTE_REST,
NOTE_AS6,NOTE_REST,
NOTE_B6,NOTE_REST,
NOTE_GS6,NOTE_REST,
NOTE_B6,NOTE_REST,
NOTE_AS6,NOTE_REST,
NOTE_B6,NOTE_REST,
NOTE_GS6,NOTE_REST,
NOTE_B6,NOTE_REST,
NOTE_AS6,NOTE_REST,
NOTE_B6,NOTE_REST,
NOTE_FS6,NOTE_REST,
NOTE_B6,NOTE_REST,
NOTE_AS6,NOTE_REST,
NOTE_B6,NOTE_REST,
NOTE_FS6,NOTE_REST,
NOTE_AS6,NOTE_REST,
NOTE_GS6,NOTE_REST,
NOTE_AS6,NOTE_REST,
NOTE_FS6,NOTE_REST,
NOTE_AS6,NOTE_REST,
NOTE_GS6,NOTE_REST,
NOTE_AS6,NOTE_REST,
NOTE_FS6,NOTE_REST,
NOTE_AS6,NOTE_REST,
NOTE_GS6,NOTE_REST,
NOTE_AS6,NOTE_REST,
NOTE_FS6,NOTE_REST,
NOTE_AS6,NOTE_REST,
NOTE_GS6,NOTE_REST,
NOTE_AS6,NOTE_REST,
NOTE_FS6,NOTE_REST,

NOTE_GS6,NOTE_REST,
NOTE_GS6,NOTE_REST,
NOTE_GS6,NOTE_REST,
NOTE_GS6,NOTE_REST,
NOTE_GS6,NOTE_REST,

NOTE_B6,NOTE_REST,
NOTE_B6,NOTE_REST,
NOTE_B6,NOTE_REST,
NOTE_B6,NOTE_REST,
NOTE_B6,NOTE_REST,

NOTE_DS7,NOTE_REST,
NOTE_DS7,NOTE_REST,
NOTE_DS7,NOTE_REST,
NOTE_DS7,NOTE_REST,
NOTE_DS7,NOTE_REST,

NOTE_FS7,NOTE_REST,
NOTE_FS7,NOTE_REST,
NOTE_FS7,NOTE_REST,
NOTE_FS7,NOTE_REST,
NOTE_FS7,NOTE_REST,

NOTE_GS6,NOTE_REST,
NOTE_GS6,NOTE_REST,
NOTE_GS6,NOTE_REST,
NOTE_GS6,NOTE_REST,
NOTE_GS6,NOTE_REST,

NOTE_B6,NOTE_REST,
NOTE_B6,NOTE_REST,
NOTE_B6,NOTE_REST,
NOTE_B6,NOTE_REST,
NOTE_B6,NOTE_REST,

NOTE_DS7,NOTE_REST,
NOTE_DS7,NOTE_REST,
NOTE_DS7,NOTE_REST,
NOTE_DS7,NOTE_REST,
NOTE_DS7,NOTE_REST,

NOTE_FS7,NOTE_REST,
NOTE_FS7,NOTE_REST,
NOTE_FS7,NOTE_REST,
NOTE_FS7,NOTE_REST,
NOTE_FS7,NOTE_REST,
NOTE_REST,NOTE_REST,
};
